<svg version="1.1" id="Layer_1" xmlns="http://www.w3.org/2000/svg" xmlns:xlink="http://www.w3.org/1999/xlink" x="0px" y="0px"
	 width="100%" viewBox="0 0 512 512" enable-background="new 0 0 512 512" xml:space="preserve">
<path fill="#659AD2" opacity="1.000000" stroke="none" 
	d="
M242.665558,1.253398 
	C252.020889,1.000000 261.041779,1.000000 270.531342,1.000000 
	C286.661926,6.526824 300.085266,16.252689 314.315277,24.403662 
	C361.852753,51.633156 409.265289,79.082191 456.697449,106.496086 
	C463.470062,110.410378 470.442627,114.047279 475.604034,120.205551 
	C477.648743,122.645172 479.832825,124.968597 479.734375,128.815536 
	C478.291962,132.153351 475.386108,133.313095 472.824097,134.772675 
	C447.349182,149.285782 422.112488,164.211700 396.629547,178.710358 
	C394.023224,180.193268 391.459320,181.839233 387.852539,181.209534 
	C382.683319,177.970963 380.612030,172.636673 377.360413,168.288132 
	C353.038391,135.761169 320.653107,115.936760 280.888916,109.473053 
	C235.480194,102.091820 194.808243,114.052139 159.625900,143.863876 
	C131.942719,167.321213 115.578392,197.379578 109.387466,232.879990 
	C103.961296,263.995148 108.950989,293.811890 122.531372,322.258301 
	C124.025604,325.388245 126.134262,328.303436 126.252914,332.347839 
	C125.535957,335.462189 123.236053,336.604736 121.094757,337.840271 
	C94.373932,353.258636 67.705307,368.767365 40.958183,384.140167 
	C39.064911,385.228271 37.109947,386.099030 34.457973,385.799011 
	C28.402246,381.200165 28.142651,374.494293 27.001793,368.188721 
	C26.649336,366.240692 26.878502,364.199524 26.878426,362.200562 
	C26.875711,292.071228 26.899027,221.941864 26.862782,151.812561 
	C26.852903,132.701569 35.537552,119.000992 51.909637,109.475746 
	C87.001831,89.059204 122.248100,68.910179 157.353409,48.516464 
	C182.962784,33.639225 208.660217,18.911343 234.303207,4.090763 
	C236.848938,2.619439 239.727036,2.577579 242.665558,1.253398 
z"/>
<path fill="#000000" opacity="1.000000" stroke="none" 
	d="
M242.531342,1.000000 
	C244.244354,1.916762 242.994858,2.591860 242.568817,2.755318 
	C230.945297,7.214771 221.003265,14.750022 210.112793,20.555000 
	C195.637375,28.270853 181.655182,36.913090 167.473419,45.178505 
	C151.312820,54.597240 135.200195,64.098831 119.003159,73.454407 
	C102.956978,82.722847 86.666679,91.580528 70.799500,101.142807 
	C60.358788,107.434845 48.638084,111.877541 40.222862,121.275597 
	C33.351971,128.948959 29.100306,137.909531 29.078630,148.200104 
	C28.929466,219.015793 29.075693,289.832153 28.902216,360.647736 
	C28.881161,369.242676 30.582640,377.159485 34.630966,384.950745 
	C36.105751,385.399902 37.250019,385.776062 37.939068,386.791931 
	C44.279591,396.139893 54.101418,400.953766 63.458443,406.331696 
	C122.336929,440.171875 181.031128,474.331482 239.938065,508.122314 
	C241.613693,509.083466 243.718033,509.809998 243.221344,512.707642 
	C163.701523,513.000000 84.403015,512.978088 5.104666,513.079590 
	C1.910359,513.083679 0.890648,512.747437 0.893306,509.108002 
	C1.016072,341.015320 1.017558,172.922501 0.887317,4.829816 
	C0.884398,1.062909 2.101528,0.927350 5.166833,0.930752 
	C84.132042,1.018401 163.097382,1.000000 242.531342,1.000000 
z"/>
<path fill="#000000" opacity="1.000000" stroke="none" 
	d="
M478.973328,129.376068 
	C474.376892,118.959816 465.423859,113.923981 456.436523,108.749344 
	C426.729370,91.644859 397.152771,74.313736 367.475739,57.156654 
	C344.836090,44.068050 322.126984,31.099525 299.434723,18.102095 
	C289.754578,12.557613 280.038727,7.075572 270.669556,1.282581 
	C350.298492,1.000000 429.596985,1.021917 508.895355,0.920405 
	C512.089661,0.916316 513.109375,1.252608 513.106689,4.891999 
	C512.983948,172.984680 512.982422,341.077484 513.112671,509.170166 
	C513.115601,512.937073 511.898499,513.072632 508.833160,513.069275 
	C429.867981,512.981628 350.902618,513.000000 271.468658,513.000000 
	C269.548676,509.978088 272.152679,509.224457 273.864349,508.249420 
	C291.366455,498.279968 308.794891,488.182953 326.226501,478.091492 
	C371.310547,451.991516 416.485718,426.049347 461.570129,399.950104 
	C468.479889,395.950104 473.917511,390.453979 478.098999,383.182007 
	C481.688690,374.878265 482.911346,366.664642 482.890869,357.998962 
	C482.732544,290.914856 482.761078,223.830139 482.861206,156.745804 
	C482.872742,149.006821 482.393707,141.462814 479.472748,134.216476 
	C478.912994,132.827820 478.445923,131.386627 478.973328,129.376068 
z"/>
<path fill="#004482" opacity="1.000000" stroke="none" 
	d="
M479.035278,384.711243 
	C474.609406,394.570831 466.211823,399.790131 457.562439,404.767029 
	C438.711578,415.613831 419.900909,426.530457 401.047974,437.373657 
	C382.467285,448.060364 363.827179,458.643890 345.264191,469.361115 
	C327.565948,479.579102 309.948944,489.937775 292.264587,500.179962 
	C285.179077,504.283661 278.009094,508.241394 270.938782,512.632812 
	C261.979095,513.000000 252.958206,513.000000 243.468658,513.000000 
	C240.873154,509.710144 237.021164,508.916565 233.960724,507.135529 
	C202.705231,488.946014 171.258163,471.086121 139.948303,452.989410 
	C111.358192,436.464691 82.962456,419.601624 54.279034,403.241882 
	C46.461231,398.782928 39.596848,393.758270 35.108406,385.434418 
	C64.854637,367.852325 94.760170,350.571045 124.868958,332.998962 
	C128.219299,332.382538 129.400497,334.856201 130.685898,336.893341 
	C146.388702,361.779816 167.805038,380.203308 194.304718,392.690277 
	C211.309357,400.703094 229.279526,404.859558 248.128479,406.137115 
	C275.082672,407.964020 300.310730,402.309753 324.265839,390.423523 
	C348.332428,378.482025 367.618378,361.034393 382.383881,338.579987 
	C383.742859,336.513306 384.791809,334.176880 387.235779,332.484741 
	C391.260590,331.233765 393.957764,333.587280 396.745819,335.200470 
	C418.717896,347.913544 440.662048,360.674835 462.682465,373.304352 
	C466.712982,375.616028 470.789062,377.850800 474.710419,380.346619 
	C476.371826,381.404053 478.257416,382.255341 479.035278,384.711243 
z"/>
<path fill="#FEFEFF" opacity="1.000000" stroke="none" 
	d="
M388.195679,332.633118 
	C363.186890,374.646423 326.770874,400.460449 278.797089,406.685486 
	C212.498596,415.288330 161.593063,389.045837 125.383163,332.866730 
	C119.539520,320.809875 113.945900,308.976105 110.448296,296.218689 
	C87.278084,211.705841 143.377533,122.914368 229.560501,107.896660 
	C292.019836,97.012878 352.207245,123.695435 386.021942,177.254562 
	C386.553436,178.096436 387.142365,178.902023 388.026062,179.877228 
	C389.176575,184.352921 385.427948,185.193756 382.956390,186.653091 
	C369.687714,194.487701 356.296265,202.114029 343.007355,209.916031 
	C338.148346,212.768799 333.269012,215.585266 328.323425,218.287399 
	C326.410034,219.332809 324.533142,220.379700 321.876373,219.718079 
	C319.714172,218.306839 318.521637,216.514252 317.256226,214.753708 
	C304.317017,196.751587 286.762024,186.718918 264.795258,183.922714 
	C226.850464,179.092621 188.894730,207.178345 183.896515,248.122025 
	C181.943527,264.120209 185.118896,278.789703 193.080765,293.009521 
	C204.880493,314.285858 222.940186,326.067596 246.264832,329.857025 
	C269.721130,333.667847 289.780609,325.787231 307.524719,310.870911 
	C312.919647,306.335754 316.125824,299.911438 321.268555,294.656067 
	C323.851776,293.413757 325.834839,294.447601 327.692596,295.511627 
	C346.848602,306.483215 366.029724,317.412262 384.992004,328.717957 
	C386.417114,329.567596 387.846100,330.469482 388.195679,332.633118 
z"/>
<path fill="#015A9C" opacity="1.000000" stroke="none" 
	d="
M388.451294,333.076599 
	C366.363220,320.421082 344.611877,307.841858 322.518982,295.257385 
	C320.022797,295.705017 318.281250,294.642395 316.551453,293.653168 
	C298.195465,283.155518 279.931763,272.497620 261.584290,261.985077 
	C259.844238,260.988068 258.168030,259.872772 257.338409,257.490112 
	C257.457794,254.626099 259.294800,253.393341 261.155121,252.314377 
	C279.777313,241.513672 298.352417,230.630936 317.100800,220.049133 
	C318.396698,219.317703 319.707611,218.565430 321.664795,218.806915 
	C323.320984,219.131393 324.262268,218.309937 325.236877,217.746826 
	C345.483795,206.049240 365.718567,194.330612 385.939423,182.588028 
	C386.764343,182.108978 387.429993,181.355667 388.258728,180.380035 
	C391.117584,180.399994 392.979492,178.456787 395.070770,177.255112 
	C422.871185,161.280640 450.636688,145.245438 478.724243,129.065338 
	C482.850647,134.844467 484.962036,141.365433 484.967072,148.398163 
	C485.018188,219.539154 484.938171,290.680298 485.080597,361.821045 
	C485.096954,369.991058 483.233215,377.459198 479.402771,384.867065 
	C460.681702,374.457642 442.253448,363.831909 423.812805,353.227661 
	C412.147400,346.519501 400.463562,339.843384 388.451294,333.076599 
z"/>
<path fill="#659AD2" opacity="1.000000" stroke="none" 
	d="
M322.000153,218.516022 
	C311.959412,226.142380 300.722382,231.474823 290.116516,237.866989 
	C279.627045,244.188995 268.955109,250.208313 258.142670,256.615143 
	C256.886200,259.581940 254.500122,260.831451 252.191528,262.169434 
	C234.770966,272.265686 217.349335,282.360321 199.876114,292.364868 
	C197.536926,293.704163 195.293869,296.014435 191.776947,294.216248 
	C183.063461,281.327728 180.254272,267.059937 181.349091,252.223572 
	C183.961243,216.825378 208.435532,189.480392 243.035202,182.474823 
	C273.424133,176.321823 306.373077,191.223358 322.000153,218.516022 
z"/>
<path fill="#014583" opacity="1.000000" stroke="none" 
	d="
M191.510361,294.430359 
	C193.421814,294.176300 194.832840,292.885071 196.391418,291.990265 
	C216.677521,280.344055 236.954437,268.681824 257.577881,256.946777 
	C268.099854,264.092041 279.312561,269.578644 289.985168,275.971375 
	C300.524231,282.284180 311.142181,288.465149 321.951508,294.978027 
	C310.334045,315.723114 292.377106,327.638153 269.408813,331.730652 
	C239.453949,337.067993 209.044022,323.153931 192.945984,297.439972 
	C192.421646,296.602448 192.036041,295.678040 191.510361,294.430359 
z"/>
<path fill="#FDFDFE" opacity="1.000000" stroke="none" 
	d="
M385.910492,231.803192 
	C390.513916,231.142593 392.180176,232.318665 392.023041,237.036438 
	C391.639465,248.553207 391.922302,248.739456 403.536285,248.528168 
	C407.618896,248.453918 408.949310,249.486053 408.856964,253.741669 
	C408.605560,265.326324 408.804443,265.524567 397.065430,265.271484 
	C392.940033,265.182526 391.695404,266.235107 391.784363,270.448975 
	C392.033234,282.240570 391.833710,282.013153 379.923248,282.317657 
	C375.534241,282.429901 374.798431,280.965881 374.881470,277.003082 
	C375.124207,265.418274 374.945374,265.186035 363.400421,265.491974 
	C358.960571,265.609680 357.815002,264.394257 357.938995,259.992188 
	C358.258301,248.653259 358.037659,248.404678 369.399475,248.741150 
	C374.037292,248.878494 375.777374,247.494370 374.980377,242.985077 
	C374.951813,242.823517 374.976715,242.652481 374.976776,242.485870 
	C374.980194,231.803223 374.980164,231.803223 385.910492,231.803192 
z"/>
<path fill="#FDFEFE" opacity="1.000000" stroke="none" 
	d="
M454.996155,234.164032 
	C455.117432,239.112289 453.629791,244.770676 455.809631,247.698288 
	C457.912231,250.522079 463.898499,248.497375 468.169891,248.560059 
	C470.790222,248.598526 471.916382,249.096024 472.001648,252.109375 
	C472.373138,265.241577 472.483185,265.414673 459.491791,265.268585 
	C455.577850,265.224579 454.784454,266.486053 454.897247,270.077301 
	C455.020111,273.988037 456.785828,279.353760 454.118347,281.473877 
	C451.638031,283.445251 446.485199,281.840485 442.558136,282.265167 
	C438.586609,282.694641 437.915955,281.009369 437.975830,277.473511 
	C438.041687,273.583771 439.903259,268.394623 437.096252,266.115265 
	C434.747192,264.207764 429.772614,265.161926 426.010529,265.466064 
	C421.880188,265.799927 421.068298,264.151581 421.120483,260.375671 
	C421.282440,248.657272 421.141785,248.437103 432.713593,248.736206 
	C437.093384,248.849396 438.330261,247.730606 438.203522,243.274994 
	C437.876709,231.786240 438.113281,231.706497 449.761566,231.881897 
	C451.526703,231.908508 454.220886,230.343994 454.996155,234.164032 
z"/>
</svg>