<?xml version="1.0" encoding="UTF-8"?>
<!DOCTYPE svg PUBLIC "-//W3C//DTD SVG 1.1//EN" "http://www.w3.org/Graphics/SVG/1.1/DTD/svg11.dtd">
<svg xmlns="http://www.w3.org/2000/svg" version="1.1" width="225px" height="225px" style="shape-rendering:geometricPrecision; text-rendering:geometricPrecision; image-rendering:optimizeQuality; fill-rule:evenodd; clip-rule:evenodd" xmlns:xlink="http://www.w3.org/1999/xlink">
<g><path style="opacity:1" fill="#fefefe" d="M -0.5,-0.5 C 74.5,-0.5 149.5,-0.5 224.5,-0.5C 224.5,74.5 224.5,149.5 224.5,224.5C 149.5,224.5 74.5,224.5 -0.5,224.5C -0.5,149.5 -0.5,74.5 -0.5,-0.5 Z"/></g>
<g><path style="opacity:1" fill="#4fabcf" d="M 109.5,19.5 C 120.725,22.943 131.391,27.7763 141.5,34C 132.328,39.4204 122.994,44.587 113.5,49.5C 103.167,44.3333 92.8333,39.1667 82.5,34C 91.5617,29.138 100.562,24.3047 109.5,19.5 Z"/></g>
<g><path style="opacity:1" fill="#4eabcf" d="M 65.5,41.5 C 76.9647,45.5644 87.9647,50.731 98.5,57C 88.0099,62.0781 77.6765,67.4114 67.5,73C 66.1667,73.6667 64.8333,73.6667 63.5,73C 53.6764,68.2552 44.0097,63.2552 34.5,58C 44.8949,52.4711 55.2282,46.9711 65.5,41.5 Z"/></g>
<g><path style="opacity:1" fill="#4eabcf" d="M 155.5,41.5 C 167.198,46.1822 178.532,51.6822 189.5,58C 180.657,62.9218 171.657,67.5885 162.5,72C 161.167,72.6667 159.833,72.6667 158.5,72C 148.343,67.0886 138.343,61.9219 128.5,56.5C 137.723,51.7258 146.723,46.7258 155.5,41.5 Z"/></g>
<g><path style="opacity:1" fill="#4eabcf" d="M 111.5,64.5 C 112.873,64.3433 114.207,64.51 115.5,65C 125.551,69.6886 135.217,74.8552 144.5,80.5C 133.745,86.2942 122.912,91.9608 112,97.5C 101.421,92.1275 90.9212,86.6275 80.5,81C 90.8949,75.4711 101.228,69.9711 111.5,64.5 Z"/></g>
<g><path style="opacity:1" fill="#96ace0" d="M 26.5,68.5 C 25.5018,99.6622 25.1685,130.996 25.5,162.5C 24.1701,130.997 24.1701,99.3308 25.5,67.5C 26.1067,67.6236 26.44,67.9569 26.5,68.5 Z"/></g>
<g><path style="opacity:1" fill="#4c76ce" d="M 26.5,68.5 C 33.7181,72.0259 40.8848,75.6926 48,79.5C 58.5139,101.86 69.0139,124.193 79.5,146.5C 79.9867,147.473 80.4867,148.473 81,149.5C 81.4999,131.836 81.6666,114.17 81.5,96.5C 89.5,100.5 97.5,104.5 105.5,108.5C 105.832,140.338 105.498,172.004 104.5,203.5C 95.764,199.048 87.5973,193.715 80,187.5C 68.7451,166.658 57.7451,145.658 47,124.5C 46.6667,140.833 46.3333,157.167 46,173.5C 39.3514,169.427 32.518,165.76 25.5,162.5C 25.1685,130.996 25.5018,99.6622 26.5,68.5 Z"/></g>
<g><path style="opacity:1" fill="#97cbe0" d="M 197.5,69.5 C 197.56,68.9569 197.893,68.6236 198.5,68.5C 199.826,82.3276 199.826,95.9942 198.5,109.5C 198.829,95.9895 198.496,82.6562 197.5,69.5 Z"/></g>
<g><path style="opacity:1" fill="#50abcf" d="M 197.5,69.5 C 198.496,82.6562 198.829,95.9895 198.5,109.5C 188.252,114.792 177.918,119.792 167.5,124.5C 167.333,111.163 167.5,97.8292 168,84.5C 177.782,79.3591 187.615,74.3591 197.5,69.5 Z"/></g>
<g><path style="opacity:1" fill="#4fabcf" d="M 154.5,90.5 C 155.826,104.006 155.826,117.672 154.5,131.5C 142.589,137.372 130.755,143.372 119,149.5C 118.167,135.821 118.334,122.154 119.5,108.5C 131.384,102.726 143.051,96.7256 154.5,90.5 Z"/></g>
<g><path style="opacity:1" fill="#d4def2" d="M 81.5,96.5 C 81.6666,114.17 81.4999,131.836 81,149.5C 80.4867,148.473 79.9867,147.473 79.5,146.5C 80.1667,129.833 80.8333,113.167 81.5,96.5 Z"/></g>
<g><path style="opacity:1" fill="#d0d9f0" d="M 105.5,108.5 C 106.83,140.336 106.83,172.336 105.5,204.5C 104.893,204.376 104.56,204.043 104.5,203.5C 105.498,172.004 105.832,140.338 105.5,108.5 Z"/></g>
<g><path style="opacity:1" fill="#97cbe0" d="M 197.5,124.5 C 197.56,123.957 197.893,123.624 198.5,123.5C 199.826,137.661 199.826,151.661 198.5,165.5C 198.829,151.656 198.496,137.99 197.5,124.5 Z"/></g>
<g><path style="opacity:1" fill="#4dabcf" d="M 197.5,124.5 C 198.496,137.99 198.829,151.656 198.5,165.5C 188.96,170.437 179.293,175.103 169.5,179.5C 168.504,166.344 168.171,153.01 168.5,139.5C 177.975,134.261 187.642,129.261 197.5,124.5 Z"/></g>
<g><path style="opacity:1" fill="#a4d0e3" d="M 168.5,139.5 C 168.171,153.01 168.504,166.344 169.5,179.5C 169.44,180.043 169.107,180.376 168.5,180.5C 167.174,166.672 167.174,153.006 168.5,139.5 Z"/></g>
<g><path style="opacity:1" fill="#50accf" d="M 154.5,145.5 C 155.826,159.339 155.826,173.339 154.5,187.5C 142.92,193.359 131.253,199.026 119.5,204.5C 118.167,190.833 118.167,177.167 119.5,163.5C 131.384,157.726 143.051,151.726 154.5,145.5 Z"/></g>
</svg>
