<?xml version="1.0" encoding="UTF-8"?>
<!DOCTYPE svg PUBLIC "-//W3C//DTD SVG 1.1//EN" "http://www.w3.org/Graphics/SVG/1.1/DTD/svg11.dtd">
<svg xmlns="http://www.w3.org/2000/svg" version="1.1" width="414px" height="512px" style="shape-rendering:geometricPrecision; text-rendering:geometricPrecision; image-rendering:optimizeQuality; fill-rule:evenodd; clip-rule:evenodd" xmlns:xlink="http://www.w3.org/1999/xlink">
<g><path style="opacity:0.961" fill="#fe0000" d="M 189.5,-0.5 C 199.5,-0.5 209.5,-0.5 219.5,-0.5C 262.809,8.41554 289.642,34.4155 300,77.5C 306.288,115.308 295.121,146.808 266.5,172C 262.405,175.465 257.905,178.298 253,180.5C 250.981,178.812 249.314,176.812 248,174.5C 239.916,159.419 231.416,144.586 222.5,130C 237.846,119.467 244.013,104.967 241,86.5C 231.824,64.026 215.324,55.526 191.5,61C 172.727,69.9476 164.893,84.7809 168,105.5C 171.14,115.946 177.307,124.112 186.5,130C 177.055,145.045 168.222,160.545 160,176.5C 158.66,177.868 157.326,179.201 156,180.5C 128.279,164.7 112.279,140.7 108,108.5C 104.816,60.5078 124.649,26.3412 167.5,6C 174.906,3.69421 182.239,1.52754 189.5,-0.5 Z"/></g>
<g><path style="opacity:0.963" fill="#00ff00" d="M -0.5,301.5 C -0.5,291.833 -0.5,282.167 -0.5,272.5C 7.53678,232.623 30.8701,206.123 69.5,193C 95.6948,186.733 120.695,189.733 144.5,202C 145.517,203.049 145.684,204.216 145,205.5C 135.642,221.711 126.142,237.878 116.5,254C 112.174,253.024 107.841,251.691 103.5,250C 93.8711,248.33 84.8711,249.996 76.5,255C 58.0253,269.708 54.5253,287.542 66,308.5C 76.6553,322.237 90.4886,327.07 107.5,323C 123.87,316.442 132.87,304.275 134.5,286.5C 154.167,286.5 173.833,286.5 193.5,286.5C 191.85,330.97 170.517,361.804 129.5,379C 78.914,392.705 39.414,377.871 11,334.5C 5.97589,323.811 2.14256,312.811 -0.5,301.5 Z"/></g>
<g><path style="opacity:0.961" fill="#0000ff" d="M 264.5,202.5 C 265.675,202.281 266.675,202.614 267.5,203.5C 277.527,219.859 287.193,236.526 296.5,253.5C 292.079,256.71 288.079,260.377 284.5,264.5C 270.88,290.475 277.214,309.975 303.5,323C 328.641,326.966 344.808,316.8 352,292.5C 352.625,275.84 346.125,262.84 332.5,253.5C 342.175,236.14 352.342,219.14 363,202.5C 398.813,224.744 414.813,257.077 411,299.5C 401.896,348.268 372.73,376.435 323.5,384C 274.36,385.473 240.526,363.639 222,318.5C 209.599,269.709 223.765,231.043 264.5,202.5 Z"/></g>
<g><path style="opacity:0.881" fill="#040404" d="M 31.5,404.5 C 42.9792,403.976 53.9792,405.809 64.5,410C 66.7089,411.873 68.5422,414.04 70,416.5C 73.3606,431.314 74.3606,446.314 73,461.5C 73.324,480.176 64.1574,489.009 45.5,488C 35.0648,488.907 24.7315,488.24 14.5,486C 5.96772,482.463 1.80105,475.963 2,466.5C -0.489805,449.296 0.510195,432.296 5,415.5C 6.61959,413.759 8.11959,411.925 9.5,410C 16.7057,407.329 24.039,405.496 31.5,404.5 Z M 24.5,420.5 C 33.1731,420.334 41.8397,420.5 50.5,421C 53.9937,423.092 55.827,426.259 56,430.5C 56.6667,440.833 56.6667,451.167 56,461.5C 56.4107,467.88 53.5773,471.713 47.5,473C 40.8333,473.667 34.1667,473.667 27.5,473C 25.2381,472.358 23.0715,471.525 21,470.5C 16.5406,455.092 16.374,439.592 20.5,424C 21.6856,422.588 23.019,421.421 24.5,420.5 Z"/></g>
<g><path style="opacity:0.873" fill="#040404" d="M 301.5,404.5 C 311.65,403.975 321.317,405.808 330.5,410C 335.851,417.237 337.851,425.404 336.5,434.5C 330.833,434.5 325.167,434.5 319.5,434.5C 320.432,429.181 319.098,424.681 315.5,421C 307.5,420.333 299.5,420.333 291.5,421C 288.995,421.51 287.495,423.01 287,425.5C 283.471,440.683 283.971,455.683 288.5,470.5C 293.357,472.944 298.523,473.944 304,473.5C 316.609,475.39 322.109,470.057 320.5,457.5C 326.167,457.5 331.833,457.5 337.5,457.5C 338.607,466.461 336.94,474.794 332.5,482.5C 330.972,483.861 329.305,485.028 327.5,486C 311.83,489.3 296.163,489.3 280.5,486C 277.695,484.521 275.195,482.688 273,480.5C 269.339,467.455 267.506,454.121 267.5,440.5C 267.616,431.896 269.116,423.562 272,415.5C 274.687,411.806 278.187,409.306 282.5,408C 288.906,406.438 295.24,405.271 301.5,404.5 Z"/></g>
<g><path style="opacity:0.877" fill="#040404" d="M 413.5,405.5 C 413.5,408.5 413.5,411.5 413.5,414.5C 412.065,416.598 410.898,418.931 410,421.5C 403.004,443.156 396.004,464.822 389,486.5C 380.559,487.815 372.059,487.815 363.5,486.5C 354.836,459.531 346.503,432.531 338.5,405.5C 344.425,405.192 350.259,405.525 356,406.5C 363.22,427.827 370.22,449.16 377,470.5C 383.519,449.077 390.352,427.743 397.5,406.5C 402.792,405.505 408.125,405.172 413.5,405.5 Z"/></g>
<g><path style="opacity:0.872" fill="#040404" d="M 97.5,511.5 C 92.5,511.5 87.5,511.5 82.5,511.5C 82.5,484.167 82.5,456.833 82.5,429.5C 87.5,429.5 92.5,429.5 97.5,429.5C 97.3379,431.527 97.5045,433.527 98,435.5C 100.626,432.769 103.793,430.936 107.5,430C 129.811,426.642 139.811,436.308 137.5,459C 137,464.5 136.5,470 136,475.5C 134.216,483.258 129.383,487.425 121.5,488C 114.684,488.876 108.017,488.21 101.5,486C 100.696,484.229 99.5292,482.729 98,481.5C 97.5002,491.494 97.3335,501.494 97.5,511.5 Z M 104.5,441.5 C 118.289,439.625 123.955,445.625 121.5,459.5C 121.333,462.5 121.167,465.5 121,468.5C 120.907,471.007 120.074,473.174 118.5,475C 113.155,476.871 107.821,476.871 102.5,475C 100.789,473.565 99.622,471.731 99,469.5C 96.8604,461.006 97.3604,452.673 100.5,444.5C 101.901,443.479 103.235,442.479 104.5,441.5 Z"/></g>
<g><path style="opacity:0.876" fill="#040404" d="M 160.5,429.5 C 167.508,429.334 174.508,429.5 181.5,430C 189.22,431.386 194.053,435.886 196,443.5C 196.499,449.491 196.666,455.491 196.5,461.5C 184.167,461.5 171.833,461.5 159.5,461.5C 159.536,465.979 160.369,470.312 162,474.5C 168.146,477.12 174.313,477.12 180.5,474.5C 181.093,472.618 181.76,470.785 182.5,469C 187.155,468.501 191.821,468.334 196.5,468.5C 198.279,476.438 195.613,482.271 188.5,486C 176.833,489.333 165.167,489.333 153.5,486C 147.081,481.994 144.248,476.161 145,468.5C 144.268,459.13 144.602,449.797 146,440.5C 149.165,434.514 153.998,430.848 160.5,429.5 Z M 164.5,441.5 C 169.628,441.112 174.628,441.612 179.5,443C 181.227,445.904 181.893,449.07 181.5,452.5C 174.167,452.5 166.833,452.5 159.5,452.5C 159.316,447.876 160.982,444.209 164.5,441.5 Z"/></g>
<g><path style="opacity:0.836" fill="#040404" d="M 207.5,429.5 C 212.179,429.334 216.845,429.501 221.5,430C 222.097,431.889 222.431,433.722 222.5,435.5C 224.889,432.6 227.889,430.767 231.5,430C 241.146,427.676 249.479,429.842 256.5,436.5C 257.775,439.373 258.608,442.373 259,445.5C 259.5,459.496 259.667,473.496 259.5,487.5C 254.5,487.5 249.5,487.5 244.5,487.5C 244.667,473.829 244.5,460.163 244,446.5C 236.82,439.645 229.82,439.979 223,447.5C 222.5,460.829 222.333,474.163 222.5,487.5C 217.167,487.5 211.833,487.5 206.5,487.5C 206.18,468.091 206.513,448.757 207.5,429.5 Z"/></g>
</svg>
