<svg version="1.1" id="Layer_1" xmlns="http://www.w3.org/2000/svg" xmlns:xlink="http://www.w3.org/1999/xlink" x="0px" y="0px"
	 width="100%" viewBox="0 0 512 512" enable-background="new 0 0 512 512" xml:space="preserve">
<path fill="#000000" opacity="1.000000" stroke="none" 
	d="
M278.000000,513.000000 
	C186.688828,513.000000 95.877632,512.978821 5.066580,513.085510 
	C1.789276,513.089417 0.894939,512.628845 0.897434,509.068359 
	C1.015137,341.109406 1.016947,173.150391 0.891315,5.191469 
	C0.888499,1.427486 1.857686,0.914039 5.306586,0.916012 
	C173.098938,1.012029 340.891327,1.011622 508.683685,0.918244 
	C512.106201,0.916340 513.113586,1.390774 513.110657,5.181714 
	C512.982666,173.140640 512.985107,341.099670 513.101501,509.058624 
	C513.103943,512.599182 512.241455,513.092285 508.943146,513.087463 
	C432.128876,512.974426 355.314423,513.000000 278.000000,513.000000 
z"/>
<path fill="#347AB4" opacity="1.000000" stroke="none" 
	d="
M60.792217,344.291656 
	C45.139290,330.904175 39.281170,312.922241 34.989712,294.085876 
	C31.584759,279.140594 29.506544,263.949951 29.284931,248.719620 
	C29.128223,237.949982 29.948523,226.991425 32.088768,216.303482 
	C34.268688,205.417374 35.947876,194.377670 39.975830,183.960953 
	C48.796089,161.150879 64.899277,146.819916 89.144844,141.889160 
	C92.777611,141.150375 96.331497,141.010239 99.950691,141.009201 
	C147.271866,140.995728 194.593216,140.943848 241.913895,141.097382 
	C246.103683,141.110977 247.304276,139.987427 247.097122,135.847702 
	C246.747818,128.866974 246.765228,121.845009 247.092941,114.862183 
	C247.279266,110.891632 246.040649,109.889832 242.124390,109.909737 
	C210.633286,110.069786 179.140457,109.906662 147.649780,110.103340 
	C143.151840,110.131432 141.649185,109.071716 141.899719,104.411118 
	C142.486603,93.492180 141.292206,82.514351 142.989258,71.612434 
	C145.530746,55.285774 155.108093,44.799538 170.180832,39.081036 
	C184.692429,33.575417 199.899628,31.401051 215.287109,29.909374 
	C228.817307,28.597744 242.380127,27.182400 255.911377,28.146492 
	C275.185364,29.519754 294.789734,29.212212 313.310791,36.015579 
	C332.068115,42.905731 345.688202,55.035839 351.339294,74.822952 
	C352.326660,78.280151 353.041321,81.801079 353.034851,85.481277 
	C352.974854,119.472435 352.768921,153.465836 353.075897,187.454330 
	C353.303833,212.693604 336.083984,234.762283 312.045593,240.388016 
	C307.908722,241.356171 303.669464,242.017639 299.359161,242.014465 
	C264.201538,241.988632 229.043686,242.072815 193.886307,241.977875 
	C163.587189,241.896057 135.625046,266.837433 131.019943,295.814789 
	C128.631454,310.844086 130.610214,326.014832 129.985641,341.106995 
	C129.801422,345.558502 131.870346,351.327026 129.135773,354.103180 
	C126.389954,356.890808 120.606468,354.878784 116.160675,354.960510 
	C108.498566,355.101349 100.831512,354.945007 93.167412,355.012207 
	C81.276527,355.116455 70.545052,351.740936 60.792217,344.291656 
z"/>
<path fill="#FFCA1D" opacity="1.000000" stroke="none" 
	d="
M298.564178,482.746399 
	C286.093475,484.273621 274.074066,486.556152 261.864624,485.962616 
	C236.975769,484.752777 212.786362,480.252625 190.439575,468.702057 
	C178.130630,462.339844 168.174484,453.314056 163.020493,439.973145 
	C161.020050,434.795074 160.039993,429.331573 160.029907,423.789886 
	C159.969574,390.629761 159.873245,357.468811 160.040863,324.309418 
	C160.170792,298.605042 177.775818,275.552521 203.807816,270.825623 
	C206.423874,270.350586 208.964462,270.020752 211.563660,270.018677 
	C246.223602,269.990997 280.888519,269.635498 315.542053,270.107819 
	C347.161865,270.538757 374.286346,247.710419 381.614319,218.522415 
	C383.680573,210.292404 384.109253,201.665314 384.025757,193.090790 
	C383.920319,182.260574 384.085541,171.427429 383.941467,160.598114 
	C383.904877,157.847214 384.587189,156.905579 387.491394,156.934494 
	C401.987122,157.078796 416.522491,156.354614 430.971283,157.190659 
	C444.175446,157.954666 454.325317,165.206146 461.975861,175.878387 
	C471.646729,189.368927 475.610321,205.044540 478.970917,220.908081 
	C481.818268,234.349030 483.515472,247.882004 484.207062,261.684448 
	C485.542114,288.331604 479.099060,313.106079 469.017639,337.342438 
	C465.804810,345.066315 461.568329,352.149811 456.046783,358.230499 
	C450.281036,364.580078 442.754730,368.396362 434.159241,370.066071 
	C429.567749,370.957977 425.000519,370.996490 420.393860,370.996948 
	C371.070068,371.001831 321.746277,370.999908 272.422485,371.000061 
	C266.000031,371.000092 265.999878,371.000580 265.999725,377.663483 
	C265.999542,384.162231 266.227386,390.671997 265.913513,397.155548 
	C265.728058,400.986237 266.727112,402.127991 270.745514,402.104858 
	C302.571655,401.921600 334.399719,402.080109 366.225922,401.904785 
	C370.186310,401.882965 371.259827,402.933350 371.086975,406.820984 
	C370.702881,415.457794 371.752838,424.260468 370.475830,432.732941 
	C368.221436,447.689972 358.807587,458.141998 346.256561,465.960999 
	C333.873108,473.675568 320.201477,477.954041 306.069305,480.999451 
	C303.698059,481.510498 301.328857,482.031158 298.564178,482.746399 
z"/>
<path fill="#FCFDFE" opacity="1.000000" stroke="none" 
	d="
M185.565842,52.370758 
	C196.638519,51.813023 205.127914,57.929642 206.948410,67.399185 
	C208.820419,77.136681 203.484421,86.565857 194.382660,89.604004 
	C184.793472,92.804848 174.506866,87.910866 170.790878,78.379890 
	C167.063507,68.819717 171.553757,57.853466 180.905518,53.803516 
	C182.263596,53.215382 183.739258,52.898743 185.565842,52.370758 
z"/>
<path fill="#FFFEFC" opacity="1.000000" stroke="none" 
	d="
M327.301758,426.599243 
	C335.190430,434.056549 336.988983,442.866089 332.536072,451.083984 
	C328.416748,458.686249 319.561005,462.685791 311.407349,460.480377 
	C303.605286,458.370087 298.696533,453.184021 297.299042,445.334106 
	C295.867371,437.292236 298.651428,430.446838 305.559845,425.897003 
	C312.667023,421.216248 319.964661,421.633636 327.301758,426.599243 
z"/>
</svg>