<?xml version="1.0" encoding="UTF-8"?>
<!DOCTYPE svg PUBLIC "-//W3C//DTD SVG 1.1//EN" "http://www.w3.org/Graphics/SVG/1.1/DTD/svg11.dtd">
<svg xmlns="http://www.w3.org/2000/svg" version="1.1" width="1915px" height="2048px" style="shape-rendering:geometricPrecision; text-rendering:geometricPrecision; image-rendering:optimizeQuality; fill-rule:evenodd; clip-rule:evenodd" xmlns:xlink="http://www.w3.org/1999/xlink">
<g><path style="opacity:0.998" fill="#f8be3b" d="M 1087.5,-0.5 C 1088.83,-0.5 1090.17,-0.5 1091.5,-0.5C 1363.5,156.833 1635.5,314.167 1907.5,471.5C 1816.64,524.098 1725.64,576.431 1634.5,628.5C 1452.82,523.806 1271.15,419.139 1089.5,314.5C 824.697,467.069 560.031,619.902 295.5,773C 287.561,777.468 279.561,781.634 271.5,785.5C 180.833,733.5 90.1667,681.5 -0.5,629.5C -0.5,628.833 -0.5,628.167 -0.5,627.5C 362.501,418.669 725.168,209.335 1087.5,-0.5 Z"/></g>
<g><path style="opacity:1" fill="#ed8e24" d="M 1089.5,314.5 C 1089.17,419.904 1089.5,525.237 1090.5,630.5C 1090.5,734.833 1090.5,839.167 1090.5,943.5C 999.364,995.569 908.364,1047.9 817.5,1100.5C 817.833,995.831 817.5,891.165 816.5,786.5C 815.893,786.624 815.56,786.957 815.5,787.5C 724.64,839.091 634.307,891.424 544.5,944.5C 453.776,996.948 362.942,1049.28 272,1101.5C 271.601,1101.27 271.435,1100.94 271.5,1100.5C 271.5,995.5 271.5,890.5 271.5,785.5C 279.561,781.634 287.561,777.468 295.5,773C 560.031,619.902 824.697,467.069 1089.5,314.5 Z"/></g>
<g><path style="opacity:0.999" fill="#e55b2d" d="M 1089.5,314.5 C 1271.15,419.139 1452.82,523.806 1634.5,628.5C 1634.5,733.5 1634.5,838.5 1634.5,943.5C 1453.17,839.167 1271.83,734.833 1090.5,630.5C 1089.5,525.237 1089.17,419.904 1089.5,314.5 Z"/></g>
<g><path style="opacity:0.998" fill="#ed8e24" d="M 1907.5,471.5 C 1907.67,576.501 1907.5,681.501 1907,786.5C 1816.52,839.488 1725.69,891.821 1634.5,943.5C 1634.5,838.5 1634.5,733.5 1634.5,628.5C 1725.64,576.431 1816.64,524.098 1907.5,471.5 Z"/></g>
<g><path style="opacity:0.999" fill="#e55b2d" d="M -0.5,629.5 C 90.1667,681.5 180.833,733.5 271.5,785.5C 271.5,890.5 271.5,995.5 271.5,1100.5C 180.861,1048.51 90.1941,996.512 -0.5,944.5C -0.5,839.5 -0.5,734.5 -0.5,629.5 Z"/></g>
<g><path style="opacity:0.753" fill="#e97828" d="M 815.5,787.5 C 815.56,786.957 815.893,786.624 816.5,786.5C 817.5,891.165 817.833,995.831 817.5,1100.5C 816.833,996.167 816.167,891.833 815.5,787.5 Z"/></g>
<g><path style="opacity:1" fill="#e55b2c" d="M 815.5,787.5 C 816.167,891.833 816.833,996.167 817.5,1100.5C 907.832,1153.34 998.499,1205.67 1089.5,1257.5C 1089.67,1362.5 1089.5,1467.5 1089,1572.5C 999.024,1520.1 908.857,1468.1 818.5,1416.5C 818.44,1415.96 818.107,1415.62 817.5,1415.5C 816.5,1625.17 816.167,1834.83 816.5,2044.5C 726.058,1992.78 635.725,1940.78 545.5,1888.5C 544.5,1573.83 544.167,1259.17 544.5,944.5C 634.307,891.424 724.64,839.091 815.5,787.5 Z"/></g>
<g><path style="opacity:0.998" fill="#f7be3b" d="M 1090.5,943.5 C 1180.83,995.5 1271.17,1047.5 1361.5,1099.5C 1361.59,1100.5 1361.25,1101.33 1360.5,1102C 1270.44,1154.36 1180.1,1206.2 1089.5,1257.5C 998.499,1205.67 907.832,1153.34 817.5,1100.5C 908.364,1047.9 999.364,995.569 1090.5,943.5 Z"/></g>
<g><path style="opacity:0.753" fill="#e97928" d="M 818.5,1416.5 C 817.5,1625.67 817.167,1835 817.5,2044.5C 817.167,2045.83 816.833,2045.83 816.5,2044.5C 816.167,1834.83 816.5,1625.17 817.5,1415.5C 818.107,1415.62 818.44,1415.96 818.5,1416.5 Z"/></g>
<g><path style="opacity:0.999" fill="#ed8e24" d="M 1361.5,1099.5 C 1362.83,1205 1362.83,1310.67 1361.5,1416.5C 1271.5,1468.5 1181.5,1520.5 1091.5,1572.5C 1090.67,1677.5 1090.17,1782.5 1090,1887.5C 999.52,1940.49 908.686,1992.82 817.5,2044.5C 817.167,1835 817.5,1625.67 818.5,1416.5C 908.857,1468.1 999.024,1520.1 1089,1572.5C 1089.5,1467.5 1089.67,1362.5 1089.5,1257.5C 1180.1,1206.2 1270.44,1154.36 1360.5,1102C 1361.25,1101.33 1361.59,1100.5 1361.5,1099.5 Z"/></g>
</svg>
